<?xml version="1.0" encoding="iso-8859-1"?><!DOCTYPE svg PUBLIC "-//W3C//DTD SVG 1.1//EN" "http://www.w3.org/Graphics/SVG/1.1/DTD/svg11.dtd"><svg xmlns="http://www.w3.org/2000/svg" xmlns:xlink="http://www.w3.org/1999/xlink"><symbol viewBox="0 0 438.549 438.549" id="github-logo" xmlns="http://www.w3.org/2000/svg"><path d="M409.132 114.573c-19.608-33.596-46.205-60.194-79.798-79.8-33.598-19.607-70.277-29.408-110.063-29.408-39.781 0-76.472 9.804-110.063 29.408-33.596 19.605-60.192 46.204-79.8 79.8C9.803 148.168 0 184.854 0 224.63c0 47.78 13.94 90.745 41.827 128.906 27.884 38.164 63.906 64.572 108.063 79.227 5.14.954 8.945.283 11.419-1.996 2.475-2.282 3.711-5.14 3.711-8.562 0-.571-.049-5.708-.144-15.417a2549.81 2549.81 0 0 1-.144-25.406l-6.567 1.136c-4.187.767-9.469 1.092-15.846 1-6.374-.089-12.991-.757-19.842-1.999-6.854-1.231-13.229-4.086-19.13-8.559-5.898-4.473-10.085-10.328-12.56-17.556l-2.855-6.57c-1.903-4.374-4.899-9.233-8.992-14.559-4.093-5.331-8.232-8.945-12.419-10.848l-1.999-1.431c-1.332-.951-2.568-2.098-3.711-3.429-1.142-1.331-1.997-2.663-2.568-3.997-.572-1.335-.098-2.43 1.427-3.289 1.525-.859 4.281-1.276 8.28-1.276l5.708.853c3.807.763 8.516 3.042 14.133 6.851 5.614 3.806 10.229 8.754 13.846 14.842 4.38 7.806 9.657 13.754 15.846 17.847 6.184 4.093 12.419 6.136 18.699 6.136 6.28 0 11.704-.476 16.274-1.423 4.565-.952 8.848-2.383 12.847-4.285 1.713-12.758 6.377-22.559 13.988-29.41-10.848-1.14-20.601-2.857-29.264-5.14-8.658-2.286-17.605-5.996-26.835-11.14-9.235-5.137-16.896-11.516-22.985-19.126-6.09-7.614-11.088-17.61-14.987-29.979-3.901-12.374-5.852-26.648-5.852-42.826 0-23.035 7.52-42.637 22.557-58.817-7.044-17.318-6.379-36.732 1.997-58.24 5.52-1.715 13.706-.428 24.554 3.853 10.85 4.283 18.794 7.952 23.84 10.994 5.046 3.041 9.089 5.618 12.135 7.708 17.705-4.947 35.976-7.421 54.818-7.421s37.117 2.474 54.823 7.421l10.849-6.849c7.419-4.57 16.18-8.758 26.262-12.565 10.088-3.805 17.802-4.853 23.134-3.138 8.562 21.509 9.325 40.922 2.279 58.24 15.036 16.18 22.559 35.787 22.559 58.817 0 16.178-1.958 30.497-5.853 42.966-3.9 12.471-8.941 22.457-15.125 29.979-6.191 7.521-13.901 13.85-23.131 18.986-9.232 5.14-18.182 8.85-26.84 11.136-8.662 2.286-18.415 4.004-29.263 5.146 9.894 8.562 14.842 22.077 14.842 40.539v60.237c0 3.422 1.19 6.279 3.572 8.562 2.379 2.279 6.136 2.95 11.276 1.995 44.163-14.653 80.185-41.062 108.068-79.226 27.88-38.161 41.825-81.126 41.825-128.906-.01-39.771-9.818-76.454-29.414-110.049z"/></symbol><symbol viewBox="0 0 512 512" id="instagram" xmlns="http://www.w3.org/2000/svg"><path d="M352 0H160C71.648 0 0 71.648 0 160v192c0 88.352 71.648 160 160 160h192c88.352 0 160-71.648 160-160V160C512 71.648 440.352 0 352 0zm112 352c0 61.76-50.24 112-112 112H160c-61.76 0-112-50.24-112-112V160C48 98.24 98.24 48 160 48h192c61.76 0 112 50.24 112 112v192z"/><path d="M256 128c-70.688 0-128 57.312-128 128s57.312 128 128 128 128-57.312 128-128-57.312-128-128-128zm0 208c-44.096 0-80-35.904-80-80 0-44.128 35.904-80 80-80s80 35.872 80 80c0 44.096-35.904 80-80 80z"/><circle cx="393.6" cy="118.4" r="17.056"/></symbol><symbol viewBox="-82 0 512 512.002" id="lightbulb" xmlns="http://www.w3.org/2000/svg"><path d="M329.09 94.824a7.63 7.63 0 1 0-13.578 6.957c11.523 22.5 17.367 46.82 17.367 72.285 0 34.809-11.055 67.856-31.969 95.563-8.676 11.496-13.453 25.953-13.453 40.707v.973c0 20.777-16.902 37.68-37.676 37.68h-68.086V252.39c27.528-3.739 48.82-27.383 48.82-55.918a7.63 7.63 0 0 0-15.257 0c0 22.71-18.477 41.191-41.192 41.191s-41.191-18.48-41.191-41.191a7.63 7.63 0 0 0-15.258 0c0 28.535 21.293 52.18 48.82 55.918v96.597H98.353c-20.774 0-37.676-16.902-37.676-37.68v-.984c0-14.84-4.817-29.129-13.93-41.324-20.273-27.145-31.16-59.441-31.484-93.395-.403-42.5 15.941-82.656 46.015-113.074 30.067-30.406 70.016-47.195 112.493-47.273h.3c49.965 0 96.008 22.805 126.356 62.601 2.558 3.348 7.344 3.993 10.691 1.438a7.623 7.623 0 0 0 1.442-10.688c-15.934-20.898-36.723-38.191-60.118-50.007C227.902 6.207 201.383-.07 173.742 0 127.168.086 83.375 18.484 50.43 51.8 17.473 85.134-.434 129.153.008 175.75c.355 37.219 12.289 72.621 34.52 102.379 7.124 9.539 10.89 20.672 10.89 32.195v.985c0 16.27 7.383 30.84 18.965 40.558-11.172 5.074-18.965 16.328-18.965 29.375 0 14.832 10.07 27.352 23.727 31.102a32.052 32.052 0 0 0-5.61 18.152c0 17.785 14.469 32.254 32.254 32.254h21.652c3.743 27.77 27.579 49.25 56.356 49.25s52.613-21.484 56.351-49.25h21.653c17.785 0 32.254-14.469 32.254-32.254 0-6.726-2.07-12.976-5.606-18.152 13.656-3.75 23.723-16.27 23.723-31.102 0-12.91-7.629-24.066-18.61-29.215 11.692-9.718 19.153-24.359 19.153-40.714v-.973c0-11.461 3.683-22.652 10.37-31.52 22.927-30.375 35.048-66.601 35.048-104.75 0-27.91-6.406-54.57-19.043-79.246zM173.797 496.746c-20.348 0-37.317-14.68-40.91-33.996h81.82c-3.594 19.316-20.566 33.996-40.91 33.996zm96.121-132.5c9.375 0 17 7.625 17 16.996 0 9.375-7.625 17-17 17H137.125a7.629 7.629 0 0 0-7.629 7.625 7.63 7.63 0 0 0 7.629 7.63h114.676c9.375 0 17 7.624 17 17 0 9.37-7.625 16.995-17 16.995H95.789c-9.371 0-16.996-7.625-16.996-16.996 0-9.375 7.625-17 16.996-17h10.824a7.626 7.626 0 0 0 7.625-7.629 7.625 7.625 0 0 0-7.625-7.625H77.672c-9.371 0-16.996-7.629-16.996-17 0-9.375 7.625-16.996 16.996-16.996zm0 0"/></symbol><symbol viewBox="-83 0 512 512" id="lightbulbColour" xmlns="http://www.w3.org/2000/svg"><path d="M224.336 460.715c0 22.582-14.598 41.754-34.879 48.605a51.312 51.312 0 0 1-16.418 2.68c-28.32 0-51.285-22.96-51.285-51.285zm0 0" fill="#cacadb"/><path d="M224.336 460.715c0 22.582-14.598 41.754-34.879 48.605-20.273-6.851-34.867-26.023-34.867-48.605zm0 0" fill="#e4e4ef"/><path d="M346.652 173.324C346.652 77.492 268.875-.176 173 0 77.105.176-.902 79.11.008 175c.363 38.207 13.09 73.453 34.367 101.938 8.277 11.082 12.922 24.449 12.922 38.28v1.028c0 26.059 21.125 47.18 47.183 47.18l78.848 33.199 78.844-33.2c26.058 0 47.18-21.12 47.18-47.179v-1.012c0-13.543 4.25-26.796 12.406-37.605 21.902-29.02 34.894-65.145 34.894-104.305zm0 0" fill="#ffbf3e"/><g fill="#e8a328"><path d="M173.324 255.441c-32.41 0-58.781-26.37-58.781-58.785a7.945 7.945 0 1 1 15.887 0c0 23.653 19.242 42.895 42.894 42.895 23.656 0 42.899-19.242 42.899-42.895a7.944 7.944 0 1 1 15.886 0c0 32.414-26.37 58.785-58.785 58.785zm0 0"/><path d="M173.324 388.68a7.94 7.94 0 0 1-7.941-7.942V247.496a7.944 7.944 0 1 1 15.887 0v133.242a7.941 7.941 0 0 1-7.946 7.942zm0 0M131.492 363.43H94.477c-26.059 0-47.188-21.13-47.188-47.184v-1.027c0-13.832-4.64-27.2-12.922-38.278-21.277-28.492-34-63.73-34.36-101.933C-.902 79.109 77.106.18 172.993 0c-50.808.352-92.105 79.207-91.62 175.008.19 38.203 6.937 73.441 18.23 101.933 4.394 11.079 6.851 24.446 6.851 38.278v1.027c0 26.055 11.219 47.184 25.04 47.184zm0 0"/></g><path d="M291.285 407.207c4.637-4.64 7.508-11.047 7.508-18.133 0-14.16-11.48-25.644-25.652-25.644H72.949a25.584 25.584 0 0 0-18.144 7.511 25.553 25.553 0 0 0-7.508 18.133c0 14.16 11.48 25.64 25.652 25.64h18.864a25.57 25.57 0 0 0-18.133 7.513 25.523 25.523 0 0 0-7.52 18.132c0 14.172 11.492 25.653 25.653 25.653h162.464c7.086 0 13.493-2.871 18.133-7.508a25.58 25.58 0 0 0 7.508-18.145c0-14.16-11.48-25.644-25.64-25.644h18.863c7.086 0 13.492-2.867 18.144-7.508zm0 0" fill="#40404c"/><path d="M291.285 407.207c4.637-4.64 7.508-11.047 7.508-18.133 0-14.16-11.48-25.644-25.652-25.644H125.516a25.563 25.563 0 0 0-18.133 7.511c-4.64 4.641-7.512 11.047-7.512 18.133 0 14.16 11.484 25.64 25.645 25.64h18.863a25.55 25.55 0 0 0-18.133 7.513 25.55 25.55 0 0 0-7.512 18.132c0 14.172 11.485 25.653 25.645 25.653h109.898c7.086 0 13.493-2.871 18.133-7.508a25.58 25.58 0 0 0 7.508-18.145c0-14.16-11.48-25.644-25.64-25.644h18.863c7.086 0 13.492-2.867 18.144-7.508zm0 0" fill="#5b5b68"/></symbol><symbol viewBox="0 0 512 512" id="linkedin" xmlns="http://www.w3.org/2000/svg"><path d="M256 0C114.637 0 0 114.637 0 256s114.637 256 256 256 256-114.637 256-256S397.363 0 256 0zm-74.39 387h-62.348V199.426h62.347zm-31.173-213.188h-.406c-20.922 0-34.453-14.402-34.453-32.402 0-18.406 13.945-32.41 35.274-32.41 21.328 0 34.453 14.004 34.859 32.41 0 18-13.531 32.403-35.274 32.403zM406.423 387h-62.34V286.652c0-25.218-9.027-42.418-31.586-42.418-17.223 0-27.48 11.602-31.988 22.801-1.649 4.008-2.051 9.61-2.051 15.215V387h-62.344s.817-169.977 0-187.574h62.344v26.558c8.285-12.78 23.11-30.96 56.188-30.96 41.02 0 71.777 26.808 71.777 84.421zm0 0"/></symbol><symbol viewBox="0 0 56.966 56.966" id="search" xmlns="http://www.w3.org/2000/svg"><path d="M55.146 51.887L41.588 37.786A22.926 22.926 0 0 0 46.984 23c0-12.682-10.318-23-23-23s-23 10.318-23 23 10.318 23 23 23c4.761 0 9.298-1.436 13.177-4.162l13.661 14.208c.571.593 1.339.92 2.162.92.779 0 1.518-.297 2.079-.837a3.004 3.004 0 0 0 .083-4.242zM23.984 6c9.374 0 17 7.626 17 17s-7.626 17-17 17-17-7.626-17-17 7.626-17 17-17z"/></symbol><symbol viewBox="0 0 612 612" id="twitter-logo-silhouette" xmlns="http://www.w3.org/2000/svg"><path d="M612 116.258a250.714 250.714 0 0 1-72.088 19.772c25.929-15.527 45.777-40.155 55.184-69.411-24.322 14.379-51.169 24.82-79.775 30.48-22.907-24.437-55.49-39.658-91.63-39.658-69.334 0-125.551 56.217-125.551 125.513 0 9.828 1.109 19.427 3.251 28.606-104.326-5.24-196.835-55.223-258.75-131.174-10.823 18.51-16.98 40.078-16.98 63.101 0 43.559 22.181 81.993 55.835 104.479a125.556 125.556 0 0 1-56.867-15.756v1.568c0 60.806 43.291 111.554 100.693 123.104-10.517 2.83-21.607 4.398-33.08 4.398-8.107 0-15.947-.803-23.634-2.333 15.985 49.907 62.336 86.199 117.253 87.194-42.947 33.654-97.099 53.655-155.916 53.655-10.134 0-20.116-.612-29.944-1.721 55.567 35.681 121.536 56.485 192.438 56.485 230.948 0 357.188-191.291 357.188-357.188l-.421-16.253c24.666-17.593 46.005-39.697 62.794-64.861z" fill="#010002"/></symbol><symbol viewBox="0 0 52.966 52.966" id="zoom-in" xmlns="http://www.w3.org/2000/svg"><path d="M28.983 20h-6v-6a1 1 0 0 0-2 0v6h-6a1 1 0 0 0 0 2h6v6a1 1 0 0 0 2 0v-6h6a1 1 0 0 0 0-2z"/><path d="M51.704 51.273L36.845 35.82c3.79-3.801 6.138-9.041 6.138-14.82 0-11.58-9.42-21-21-21s-21 9.42-21 21 9.42 21 21 21c5.083 0 9.748-1.817 13.384-4.832l14.895 15.491a.998.998 0 0 0 1.414.028 1 1 0 0 0 .028-1.414zM2.983 21c0-10.477 8.523-19 19-19s19 8.523 19 19-8.523 19-19 19-19-8.523-19-19z"/></symbol></svg>